<?xml version="1.0" standalone="no"?>
<!DOCTYPE svg PUBLIC "-//W3C//DTD SVG 20010904//EN"
 "http://www.w3.org/TR/2001/REC-SVG-20010904/DTD/svg10.dtd">
<svg version="1.0" xmlns="http://www.w3.org/2000/svg"
 width="260.000000pt" height="260.000000pt" viewBox="0 0 260.000000 260.000000"
 preserveAspectRatio="xMidYMid meet">
<metadata>
Created by potrace 1.14, written by Peter Selinger 2001-2017
</metadata>
<g transform="translate(0.000000,260.000000) scale(0.100000,-0.100000)"
fill="#000000" stroke="none">
<path d="M15 2032 c-6 -4 -10 -43 -9 -87 2 -121 1 -117 27 -115 12 1 24 1 27
0 3 -1 21 -3 40 -5 19 -1 78 -6 130 -10 52 -4 116 -8 143 -9 26 0 47 -3 47 -6
0 -3 38 -5 85 -5 47 0 85 -2 85 -5 0 -3 17 -5 38 -6 20 -1 75 -4 122 -8 47 -4
96 -7 109 -7 14 1 28 -5 33 -11 5 -8 8 -9 8 -2 0 7 12 10 28 7 15 -2 61 -5
102 -8 41 -2 75 -4 75 -5 0 -7 193 -15 342 -14 142 0 186 4 199 15 12 10 15
10 10 1 -6 -9 -2 -11 16 -7 12 3 57 7 100 9 42 2 81 7 86 10 6 3 13 2 17 -4 4
-6 12 -7 18 -3 7 4 21 8 32 9 11 1 65 5 120 10 55 4 119 8 143 8 23 1 42 3 42
6 0 3 33 5 73 5 l72 0 0 -497 c0 -436 -2 -498 -15 -499 -21 -2 -56 0 -120 6
-30 3 -81 6 -112 7 -32 1 -58 5 -58 8 0 3 -28 6 -63 6 -112 3 -213 10 -225 18
-7 4 -12 2 -12 -4 0 -6 -5 -8 -12 -3 -7 4 -29 8 -48 9 -19 1 -78 5 -130 9
-104 9 -249 9 -350 1 -36 -4 -90 -8 -121 -10 -31 -2 -62 -6 -68 -10 -6 -4 -11
-2 -11 4 0 7 -6 8 -17 2 -10 -5 -37 -8 -60 -8 -24 1 -43 -1 -43 -4 0 -3 -33
-5 -73 -5 -39 0 -76 -2 -81 -4 -5 -2 -29 -5 -55 -7 -25 -2 -82 -6 -126 -9 -44
-3 -91 -7 -105 -8 l-25 -2 -3 394 c-1 217 -4 396 -5 398 -2 1 -39 5 -83 8 -43
4 -99 8 -124 11 -25 2 -74 5 -110 8 -36 2 -69 5 -75 6 -5 2 -17 0 -25 -4 -13
-5 -15 -73 -14 -529 1 -287 2 -525 3 -528 1 -5 112 -3 314 3 26 1 47 5 47 8 0
3 33 5 73 5 39 0 76 2 81 4 5 2 36 6 70 7 34 2 90 6 126 9 73 7 157 12 275 20
94 6 169 13 208 20 19 3 26 1 21 -7 -5 -7 -3 -8 7 -2 29 17 198 23 324 10 44
-5 101 -9 128 -9 26 0 47 -3 47 -6 0 -3 35 -7 78 -8 72 -2 127 -5 297 -19 39
-3 91 -6 118 -7 26 0 47 -3 47 -6 0 -3 30 -6 68 -6 37 1 71 -1 76 -3 12 -7
148 -11 166 -6 13 3 15 92 14 726 -1 398 -2 728 -3 735 -1 8 -19 10 -63 6 -35
-4 -89 -7 -120 -7 -32 -1 -58 -4 -58 -7 0 -3 -21 -6 -47 -6 -51 0 -161 -8
-398 -29 -73 -6 -150 -11 -272 -18 -40 -2 -76 -7 -81 -10 -10 -6 -270 0 -387
9 -44 3 -96 7 -115 8 -19 2 -40 6 -47 10 -6 4 -14 3 -18 -3 -4 -6 -10 -8 -15
-5 -11 7 -80 13 -162 16 -32 1 -56 5 -54 8 2 3 -28 6 -67 7 -65 1 -122 4 -302
19 -114 9 -361 14 -370 7z"/>
<path d="M1307 1618 c-12 -8 -17 -113 -6 -143 6 -19 15 -20 100 -19 52 1 99 2
105 3 7 0 11 17 10 41 -2 23 2 40 8 40 7 0 8 3 1 8 -14 10 -15 52 -1 52 6 0 2
6 -9 12 -21 13 -190 18 -208 6z"/>
<path d="M1340 1300 c-8 -5 -22 -7 -30 -5 -13 4 -15 -18 -15 -159 l0 -164 107
-1 c98 -2 108 0 118 19 6 11 7 20 2 20 -10 0 -9 60 1 77 4 6 4 14 -1 17 -9 6
-9 107 1 123 4 6 3 14 -2 18 -5 3 -8 15 -6 26 5 25 -31 41 -59 27 -12 -7 -22
-6 -28 0 -7 7 -19 7 -33 2 -13 -5 -26 -5 -31 0 -5 5 -15 5 -24 0z"/>
</g>
</svg>
